<svg xmlns="http://www.w3.org/2000/svg" width="217.729" height="276.442" viewBox="0 0 217.729 276.442">
  <g id="Group_26" data-name="Group 26" transform="translate(-486 -3905)">
    <path id="Path_34" data-name="Path 34" d="M131.79,79.59c3.93,9.82,3.27,20.63,3.93,31.11,9.49-15.07,20.63-31.44,20-50.11-1-14.74-12.77-25.22-23.9-33.08A240.143,240.143,0,0,1,98.71,0c-1.31,11.47-1.64,23.58,3,34.39,6.55,17.36,23.58,27.84,30.13,45.2" transform="translate(485.894 3905)" fill="#2180b1"/>
    <path id="Path_35" data-name="Path 35" d="M217.59,162.11c-2.29-35-25.87-63.2-47.16-89.07,7.53,19,22.27,33.73,30.13,52.39,7.2,17,10.15,36.36,4.26,54-6.23,14.74-18.67,28.17-35,31.11-20.31,3.93-41.27-9.17-49.13-27.83-6.88-16.71-5.24-36,2-52.4,5.24-11.47,8.51-24.24,4.58-36.35C119.74,71.69,101.07,56.29,85,40c4.59,23.25,6.88,47.81-1.31,70.41-9.49,26.2-27.51,48.8-48.79,66.15-5.24-24.23,2-48.47,10.48-70.73C22.47,129,15.92,166.7,27.71,197.16c6.22,17,19.32,30.13,33.73,40.93-4.58-10.8-10.15-22.59-6.22-34.38C60.79,187,74.54,174.89,84.37,160.8c9.17-11.46,15.06-24.89,21-38-3,20-11.46,39-14.74,58.94-5.24,32.43,36.35,65.83,65.5,45.85-5.24,15.4-20,25.55-35.7,27.19C97.18,257.72,72.29,254.45,53,241,24.8,222.68,6.47,189.6,8.43,155.54c.33-21.28,8.84-40.93,17.36-59.93C-1.72,128.69-8.27,178.14,11.7,216.46c21,43.88,73.69,68.45,120.85,57.31,50.38-10.47,89-60.24,85-111.66" transform="translate(485.894 3905)" fill="#2180b1"/>
    <path id="Path_36" data-name="Path 36" d="M193.35,171.94a65.739,65.739,0,0,0,6.23-7.21c2.94-17.68-5.24-35-15.07-49.12,2.3,8.84,5.9,17.69,7.21,26.85,1.31,9.83-1,20,1.63,29.48" transform="translate(485.894 3905)" fill="#2180b1"/>
    <path id="Path_37" data-name="Path 37" d="M132.44,190.61c2.29.32,6.22,1,8.52,1.31a172.08,172.08,0,0,1-15.72-29.81c1,9.83,2.62,19.65,7.2,28.5" transform="translate(485.894 3905)" fill="#2180b1"/>
  </g>
</svg>
