<svg xmlns="http://www.w3.org/2000/svg" xmlns:xlink="http://www.w3.org/1999/xlink" viewBox="0 0 240.66 338.02"><defs><style>.cls-1{isolation:isolate;}.cls-2{fill:url(#linear-gradient);}.cls-3{fill:url(#linear-gradient-2);}.cls-4{fill:url(#linear-gradient-3);}.cls-5{fill:url(#linear-gradient-4);}.cls-6{fill:url(#linear-gradient-5);}.cls-7,.cls-8{opacity:0.52;mix-blend-mode:multiply;}.cls-7{fill:url(#linear-gradient-6);}.cls-8{fill:url(#linear-gradient-7);}</style><linearGradient id="linear-gradient" x1="127.19" y1="50.25" x2="58.93" y2="275.13" gradientUnits="userSpaceOnUse"><stop offset="0" stop-color="#eb4498"/><stop offset="1" stop-color="#7f3f98"/></linearGradient><linearGradient id="linear-gradient-2" x1="162.36" y1="60.92" x2="94.09" y2="285.81" xlink:href="#linear-gradient"/><linearGradient id="linear-gradient-3" x1="197.8" y1="71.69" x2="129.53" y2="296.58" xlink:href="#linear-gradient"/><linearGradient id="linear-gradient-4" x1="181.85" y1="66.84" x2="113.58" y2="291.74" xlink:href="#linear-gradient"/><linearGradient id="linear-gradient-5" x1="184.86" y1="67.76" x2="116.59" y2="292.64" xlink:href="#linear-gradient"/><linearGradient id="linear-gradient-6" x1="71.95" y1="119.5" x2="28.28" y2="144.6" gradientUnits="userSpaceOnUse"><stop offset="0" stop-color="#fff"/><stop offset="1" stop-color="#231f20"/></linearGradient><linearGradient id="linear-gradient-7" x1="178.91" y1="283.35" x2="207.27" y2="270.6" xlink:href="#linear-gradient-6"/></defs><title>Asset 1</title><g class="cls-1"><g id="Layer_2" data-name="Layer 2"><g id="Layer_1-2" data-name="Layer 1"><path class="cls-2" d="M169.14,103.17c-51,69.29-154.43,108.24-154.43,108.24l7.57,32.47C127.91,194,162.8,134.35,174,105.5Z"/><path class="cls-3" d="M207,208.09v40.47L121.34,299,33.92,249.5V150l85.71-50.47,7.16,4A250.4,250.4,0,0,0,149,77.3L119.31,60.52,0,130.77V269.15l9.41,5.33L121.67,338l119-70.06V134.21C233.54,155.48,222.56,187.65,207,208.09Z"/><path class="cls-4" d="M231.15,16.63A16.63,16.63,0,1,1,214.52,0,16.63,16.63,0,0,1,231.15,16.63Z"/><path class="cls-5" d="M183.17,101.6a11.65,11.65,0,1,1-10.84-12.42A11.65,11.65,0,0,1,183.17,101.6Z"/><path class="cls-6" d="M221.08,21.32l-8.53,1.75C221.35,164.93,110,232.82,74.66,250.7l47.75,25.75C262.44,167.64,221.08,21.32,221.08,21.32Z"/><path class="cls-7" d="M33.88,172.7l0,0,0-3.2Zm0-61.91V150l53.84-31.7V79.1Z"/><path class="cls-8" d="M170.25,309.42,207,287.79V248.56l-36.72,21.62Z"/></g></g></g></svg>