<svg xmlns="http://www.w3.org/2000/svg" xmlns:xlink="http://www.w3.org/1999/xlink" width="1920" height="1080" viewBox="0 0 1920 1080">
  <defs>
    <clipPath id="clip-Web_1920_4">
      <rect width="1920" height="1080"/>
    </clipPath>
  </defs>
  <g id="Web_1920_4" data-name="Web 1920 – 4" clip-path="url(#clip-Web_1920_4)">
    <rect width="1920" height="1080" fill="#fff"/>
    <g id="Group_3" data-name="Group 3" transform="translate(-5992 -1474)">
      <path id="Path_33" data-name="Path 33" d="M6.294,460.056c7.918,19.785,6.588,41.565,7.918,62.68,19.12-30.363,41.565-63.345,40.3-100.961-2.015-29.7-25.729-50.813-48.153-66.649A484.513,484.513,0,0,1-60.355,299.7c-2.639,23.109-3.3,47.508,5.944,69.288,13.2,34.977,47.508,56.091,60.705,91.068" transform="translate(6992.021 1358.3)" fill="#d2d2d2"/>
      <path id="Path_34" data-name="Path 34" d="M278.358,585.765c-4.614-70.517-52.122-127.334-95.017-179.456,15.171,38.281,44.869,67.959,60.705,105.554,14.506,34.251,20.45,73.257,8.583,108.8-12.552,29.7-37.616,56.756-70.517,62.68-40.92,7.918-83.15-18.476-98.986-56.071C69.264,593.6,72.569,554.738,87.156,521.7c10.557-23.11,17.146-48.838,9.228-73.237-15.171-44.869-52.787-75.9-85.124-108.8C20.507,386.5,25.121,435.987,8.62,481.521c-19.12,52.787-55.427,98.321-98.3,133.277-10.557-48.818,4.03-97.656,21.115-142.505-46.2,46.844-59.4,122.72-35.641,184.09,12.532,34.251,38.926,60.705,67.958,82.465-9.228-21.76-20.45-45.514-12.532-69.268,11.222-33.667,38.926-58.066,58.731-86.454,18.476-23.089,30.343-50.148,42.31-76.561-5.944,40.3-23.089,78.576-29.7,118.751C12,690.654,95.8,757.948,154.53,717.693c-10.557,31.028-40.3,51.478-71.928,54.782-46.844,5.923-96.991-.665-135.917-27.723C-110.071,707.8-147,641.151-143.053,572.528c.665-42.874,17.811-82.465,34.977-120.746-55.427,66.649-68.623,166.28-28.388,243.486C-94.154,783.677,12,833.18,107.021,810.735c101.5-21.095,179.255-121.37,171.337-224.97" transform="translate(6892.824 1398.85)" fill="#d2d2d2"/>
      <path id="Path_35" data-name="Path 35" d="M42.391,528.8a131.191,131.191,0,0,0,12.552-14.527c5.923-35.621-10.557-70.517-30.363-98.966,4.634,17.811,11.887,35.641,14.527,54.1,2.639,19.805-2.015,40.3,3.284,59.4" transform="translate(7079.954 1475.618)" fill="#d2d2d2"/>
      <path id="Path_36" data-name="Path 36" d="M-20.184,519.231c4.614.645,12.532,2.015,17.166,2.639A346.2,346.2,0,0,1-34.69,461.81c2.015,19.805,5.279,39.59,14.506,57.421" transform="translate(7019.808 1522.806)" fill="#d2d2d2"/>
    </g>
    <g id="Group_4" data-name="Group 4" transform="translate(-6381 -1020)">
      <path id="Path_37" data-name="Path 37" d="M243.735,152.926v14.8h25.909v10.4H243.735v20.393H230.78V142.53h42.3v10.4Z" transform="translate(6732.894 1658.118)" fill="#d2d2d2"/>
      <path id="Path_38" data-name="Path 38" d="M112.2,470.336c0-16.628,12.955-28.946,30.629-28.946S173.4,453.628,173.4,470.336s-13.034,28.957-30.618,28.957-30.629-12.318-30.629-28.957m48.134,0c0-10.634-7.518-17.914-17.5-17.914s-17.516,7.279-17.516,17.914,7.518,17.914,17.516,17.914,17.5-7.279,17.5-17.914" transform="translate(6898.498 1358.303)" fill="#d2d2d2"/>
      <path id="Path_39" data-name="Path 39" d="M438.652,198.511l-.08-33.587L422.1,192.586h-5.835l-16.4-26.944v32.87H387.72V142.53h10.714l20.95,34.792,20.632-34.792h10.634l.159,55.981Z" transform="translate(6754.453 1658.118)" fill="#d2d2d2"/>
      <path id="Path_40" data-name="Path 40" d="M311,492.811l4.4-9.759a32.985,32.985,0,0,0,18.471,5.846c7.677,0,10.794-2.559,10.794-6.005,0-10.475-32.552-3.276-32.552-24.067,0-9.52,7.677-17.436,23.6-17.436,7.029,0,14.229,1.683,19.426,4.959l-3.992,9.838a31.517,31.517,0,0,0-15.514-4.4c-7.677,0-10.634,2.878-10.634,6.4,0,10.316,32.54,3.2,32.54,23.748,0,9.349-7.757,17.345-23.748,17.345-8.883,0-17.834-2.627-22.747-6.472" transform="translate(6925.814 1358.303)" fill="#d2d2d2"/>
      <path id="Path_41" data-name="Path 41" d="M356.59,470.336c0-16.628,12.955-28.946,30.629-28.946s30.629,12.238,30.629,28.946-13.023,28.957-30.629,28.957-30.629-12.318-30.629-28.957m48.145,0c0-10.634-7.518-17.914-17.516-17.914S369.7,459.7,369.7,470.336s7.518,17.914,17.516,17.914,17.516-7.279,17.516-17.914" transform="translate(6932.077 1358.303)" fill="#d2d2d2"/>
      <path id="Path_42" data-name="Path 42" d="M578.97,142.53h12.955v45.427H620v10.555H578.97Z" transform="translate(6780.726 1658.118)" fill="#d2d2d2"/>
      <path id="Path_43" data-name="Path 43" d="M460.453,473.587V442.23h12.955V473.1c0,10.646,4.64,15.036,12.511,15.036s12.511-4.39,12.511-15.036V442.23h12.693v31.357c0,16.469-9.429,25.591-25.341,25.591s-25.352-9.1-25.352-25.591" transform="translate(6946.342 1358.418)" fill="#d2d2d2"/>
      <path id="Path_44" data-name="Path 44" d="M687.724,153.085H669.81V142.53h48.782v10.555H700.678v45.427H687.724Z" transform="translate(6793.205 1658.118)" fill="#d2d2d2"/>
      <rect id="Rectangle_2" data-name="Rectangle 2" width="12.955" height="55.981" transform="translate(7518.757 1800.648)" fill="#d2d2d2"/>
      <path id="Path_45" data-name="Path 45" d="M578.85,470.336c0-16.628,12.966-28.946,30.629-28.946s30.629,12.238,30.629,28.946-13.034,28.957-30.629,28.957-30.629-12.318-30.629-28.957m48.145,0c0-10.634-7.518-17.914-17.516-17.914s-17.516,7.279-17.516,17.914,7.529,17.914,17.516,17.914,17.516-7.279,17.516-17.914" transform="translate(6962.609 1358.303)" fill="#d2d2d2"/>
      <path id="Path_46" data-name="Path 46" d="M852.571,142.53v55.981H841.925l-27.9-33.985v33.985h-12.8V142.53h10.714l27.831,33.985V142.53Z" transform="translate(6811.258 1658.118)" fill="#d2d2d2"/>
      <path id="Path_47" data-name="Path 47" d="M694.24,492.813l4.39-9.781a32.984,32.984,0,0,0,18.482,5.846c7.677,0,10.794-2.559,10.794-6.005,0-10.475-32.552-3.276-32.552-24.067,0-9.52,7.677-17.436,23.589-17.436,7.04,0,14.24,1.683,19.438,4.959l-4,9.838a31.516,31.516,0,0,0-15.514-4.4c-7.677,0-10.635,2.878-10.635,6.4,0,10.316,32.552,3.2,32.552,23.748,0,9.349-7.757,17.345-23.748,17.345-8.883,0-17.834-2.627-22.747-6.472" transform="translate(6978.46 1358.3)" fill="#d2d2d2"/>
      <path id="Path_48" data-name="Path 48" d="M365.128,142.53h-12.8L327.39,198.511h13.273l4.959-12h.023l13.012-31.266,8.871,21.428h0l4.072,9.838h.011l4.959,12h13.592Z" transform="translate(6746.166 1658.118)" fill="#d2d2d2"/>
    </g>
  </g>
</svg>
