<svg xmlns="http://www.w3.org/2000/svg" viewBox="0 0 895.09 276.46"><defs><style>.cls-1{fill:#2180b1;}</style></defs><title>Asset 1</title><g id="Layer_2" data-name="Layer 2"><g id="Layer_1-2" data-name="Layer 1"><path class="cls-1" d="M-28.14,379.29c3.93,9.82,3.27,20.63,3.93,31.11,9.49-15.07,20.63-31.44,20-50.11-1-14.74-12.77-25.22-23.9-33.08A240.48,240.48,0,0,1-61.22,299.7c-1.31,11.47-1.64,23.58,2.95,34.39,6.55,17.36,23.58,27.84,30.13,45.2" transform="translate(159.93 -299.7)"/><path class="cls-1" d="M57.66,461.81c-2.29-35-25.87-63.2-47.16-89.07,7.53,19,22.27,33.73,30.13,52.39,7.2,17,10.15,36.36,4.26,54-6.23,14.74-18.67,28.17-35,31.11-20.31,3.93-41.27-9.17-49.13-27.83-6.88-16.71-5.24-36,2-52.4,5.24-11.47,8.51-24.24,4.58-36.35-7.53-22.27-26.2-37.67-42.25-54,4.59,23.25,6.88,47.81-1.31,70.41-9.49,26.2-27.51,48.8-48.79,66.15-5.24-24.23,2-48.47,10.48-70.73-22.93,23.25-29.48,60.91-17.69,91.37,6.22,17,19.32,30.13,33.73,40.93-4.58-10.8-10.15-22.59-6.22-34.38,5.57-16.71,19.32-28.82,29.15-42.91,9.17-11.46,15.06-24.89,21-38-2.95,20-11.46,39-14.74,58.94-5.24,32.43,36.35,65.83,65.5,45.85-5.24,15.4-20,25.55-35.7,27.19-23.25,2.94-48.14-.33-67.46-13.76-28.17-18.34-46.5-51.42-44.54-85.48.33-21.28,8.84-40.93,17.36-59.93-27.51,33.08-34.06,82.53-14.09,120.85,21,43.88,73.69,68.45,120.85,57.31C23,563,61.59,513.23,57.66,461.81" transform="translate(159.93 -299.7)"/><path class="cls-1" d="M33.42,471.64a65.11,65.11,0,0,0,6.23-7.21c2.94-17.68-5.24-35-15.07-49.12,2.3,8.84,5.9,17.69,7.21,26.85,1.31,9.83-1,20,1.63,29.48" transform="translate(159.93 -299.7)"/><path class="cls-1" d="M-27.49,490.31c2.29.32,6.22,1,8.52,1.31a171.83,171.83,0,0,1-15.72-29.81c1,9.83,2.62,19.65,7.2,28.5" transform="translate(159.93 -299.7)"/><polygon class="cls-1" points="242.17 151.67 242.17 164.68 264.95 164.68 264.95 173.82 242.17 173.82 242.17 191.75 230.78 191.75 230.78 142.53 267.97 142.53 267.97 151.67 242.17 151.67"/><path class="cls-1" d="M112.19,466.84c0-14.62,11.39-25.45,26.93-25.45S166,452.15,166,466.84s-11.46,25.46-26.92,25.46-26.93-10.83-26.93-25.46m42.32,0c0-9.35-6.61-15.75-15.39-15.75s-15.4,6.4-15.4,15.75,6.61,15.75,15.4,15.75,15.39-6.4,15.39-15.75" transform="translate(159.93 -299.7)"/><polygon class="cls-1" points="432.5 191.75 432.43 162.22 417.95 186.54 412.82 186.54 398.4 162.85 398.4 191.75 387.72 191.75 387.72 142.53 397.14 142.53 415.56 173.12 433.7 142.53 443.05 142.53 443.19 191.75 432.5 191.75"/><path class="cls-1" d="M311,486.6l3.87-8.58a29,29,0,0,0,16.24,5.14c6.75,0,9.49-2.25,9.49-5.28,0-9.21-28.62-2.88-28.62-21.16,0-8.37,6.75-15.33,20.75-15.33,6.18,0,12.51,1.48,17.08,4.36l-3.51,8.65a27.71,27.71,0,0,0-13.64-3.87c-6.75,0-9.35,2.53-9.35,5.63,0,9.07,28.61,2.81,28.61,20.88,0,8.22-6.82,15.25-20.88,15.25-7.81,0-15.68-2.31-20-5.69" transform="translate(159.93 -299.7)"/><path class="cls-1" d="M356.59,466.84c0-14.62,11.39-25.45,26.93-25.45s26.93,10.76,26.93,25.45S399,492.3,383.52,492.3s-26.93-10.83-26.93-25.46m42.33,0c0-9.35-6.61-15.75-15.4-15.75s-15.4,6.4-15.4,15.75,6.61,15.75,15.4,15.75,15.4-6.4,15.4-15.75" transform="translate(159.93 -299.7)"/><polygon class="cls-1" points="578.97 142.53 590.36 142.53 590.36 182.47 615.04 182.47 615.04 191.75 578.97 191.75 578.97 142.53"/><path class="cls-1" d="M460.45,469.8V442.23h11.39v27.14c0,9.36,4.08,13.22,11,13.22s11-3.86,11-13.22V442.23H505V469.8c0,14.48-8.29,22.5-22.28,22.5s-22.29-8-22.29-22.5" transform="translate(159.93 -299.7)"/><polygon class="cls-1" points="685.56 151.81 669.81 151.81 669.81 142.53 712.7 142.53 712.7 151.81 696.95 151.81 696.95 191.75 685.56 191.75 685.56 151.81"/><rect class="cls-1" x="718.82" y="142.53" width="11.39" height="49.22"/><path class="cls-1" d="M578.85,466.84c0-14.62,11.4-25.45,26.93-25.45s26.93,10.76,26.93,25.45-11.46,25.46-26.93,25.46-26.93-10.83-26.93-25.46m42.33,0c0-9.35-6.61-15.75-15.4-15.75s-15.4,6.4-15.4,15.75,6.62,15.75,15.4,15.75,15.4-6.4,15.4-15.75" transform="translate(159.93 -299.7)"/><polygon class="cls-1" points="846.37 142.53 846.37 191.75 837.01 191.75 812.48 161.87 812.48 191.75 801.23 191.75 801.23 142.53 810.65 142.53 835.12 172.41 835.12 142.53 846.37 142.53"/><path class="cls-1" d="M694.24,486.6,698.1,478a29,29,0,0,0,16.25,5.14c6.75,0,9.49-2.25,9.49-5.28,0-9.21-28.62-2.88-28.62-21.16,0-8.37,6.75-15.33,20.74-15.33,6.19,0,12.52,1.48,17.09,4.36l-3.52,8.65a27.71,27.71,0,0,0-13.64-3.87c-6.75,0-9.35,2.53-9.35,5.63,0,9.07,28.62,2.81,28.62,20.88,0,8.22-6.82,15.25-20.88,15.25-7.81,0-15.68-2.31-20-5.69" transform="translate(159.93 -299.7)"/><polygon class="cls-1" points="360.57 142.53 349.32 142.53 327.39 191.75 339.06 191.75 343.42 181.2 343.44 181.2 354.88 153.71 362.68 172.55 362.68 172.55 366.26 181.2 366.27 181.2 370.63 191.75 382.58 191.75 360.57 142.53"/></g></g></svg>