<?xml version="1.0" ?><!DOCTYPE svg  PUBLIC '-//W3C//DTD SVG 1.1//EN'  'http://www.w3.org/Graphics/SVG/1.1/DTD/svg11.dtd'><svg height="40px" id="co_x5F_layout_x5F_1_x5C_2" style="enable-background:new 0 0 40 40;" version="1.1" viewBox="0 0 40 40" width="40px" xml:space="preserve" xmlns="http://www.w3.org/2000/svg" xmlns:xlink="http://www.w3.org/1999/xlink"><path d="M4.994,13.693v-8.4c0-1.817,1.482-3.299,3.3-3.299h7.42c1.817,0,3.3,1.482,3.3,3.299l0,8.584  c0,6.328-0.748,10.673-2.27,13.523c-1.572,2.992-3.875,5.405-6.896,7.239c-1.333,0.809-3.074,0.397-3.904-0.922l-0.091-0.144  c-0.818-1.3-0.463-3.014,0.804-3.882c1.392-0.953,2.492-2.136,3.301-3.547c1.23-2.124,1.906-5.046,2.052-9.152H8.293  C6.476,16.992,4.994,15.51,4.994,13.693L4.994,13.693z M21.97,13.693v-8.4c0-1.817,1.482-3.299,3.299-3.299h7.42  c1.817,0,3.299,1.482,3.299,3.299v8.584c0,6.328-0.748,10.673-2.269,13.523c-1.572,2.991-3.875,5.404-6.896,7.238  c-1.333,0.81-3.074,0.398-3.905-0.921l-0.091-0.144c-0.818-1.3-0.463-3.014,0.804-3.882c1.392-0.953,2.492-2.136,3.301-3.547  c1.23-2.124,1.906-5.046,2.052-9.152H25.27C23.452,16.992,21.97,15.51,21.97,13.693z"/></svg>