<svg xmlns="http://www.w3.org/2000/svg" width="4064.645" height="2200.248" viewBox="0 0 4064.645 2200.248">
  <g id="Group_28" data-name="Group 28" transform="translate(76 -3850)">
    <g id="Group_26" data-name="Group 26" transform="translate(1288.447 3850)">
      <path id="Path_34" data-name="Path 34" d="M305.464,486.979c24.046,60.085,20.008,126.227,24.046,190.349,58.066-92.207,126.227-192.369,122.372-306.6-6.119-90.188-78.135-154.311-146.234-202.4A1469.334,1469.334,0,0,1,103.061,0c-8.016,70.18-10.035,144.276,18.356,210.418C161.493,316.637,265.693,380.76,305.77,486.979" transform="translate(500.259 0)" fill="#2180b1"/>
      <path id="Path_35" data-name="Path 35" d="M1330.8,787.142c-14.011-214.151-158.288-386.7-288.553-544.984,46.073,116.253,136.261,206.38,184.353,320.553,44.054,104.016,62.1,222.472,26.065,330.4-38.119,90.188-114.234,172.361-214.151,190.35C914.25,1107.512,786,1027.358,737.912,913.185c-42.1-102.242-32.061-220.269,12.237-320.614,32.061-70.18,52.069-148.315,28.023-222.411C732.1,233.9,617.865,139.672,519.539,40c28.084,142.257,42.1,292.53-8.015,430.81C453.458,631.118,343.2,769.4,213,875.556,180.936,727.3,225.234,578.987,277.12,442.787,136.943,584.555,96.866,815.226,169,1001.6c38.058,104.016,118.211,184.353,206.38,250.434-28.023-66.081-62.1-138.219-38.058-210.357,34.081-102.242,118.211-176.338,178.357-262.549,56.107-70.119,92.146-152.292,128.491-232.507-18.356,122.372-70.119,238.625-90.188,360.63-32.061,198.426,222.411,402.787,400.768,280.538-32.061,94.226-122.372,156.33-218.434,166.365-142.257,17.989-294.549-2.019-412.577-84.314-172.544-112.093-284.7-314.5-272.706-522.9,2.019-130.2,54.088-250.434,106.219-366.688-168.323,202.4-208.4,504.968-86.211,739.433,128.491,268.484,450.879,418.818,739.432,350.657,308.255-64.062,544.555-368.584,520.081-683.2" transform="translate(-0.106 204.744)" fill="#2180b1"/>
      <path id="Path_36" data-name="Path 36" d="M238.6,460.271a402.227,402.227,0,0,0,38.119-44.115C294.706,307.979,244.656,202,184.51,115.61c14.073,54.088,36.1,108.238,44.115,164.284,8.015,60.146-6.119,122.372,9.973,180.376" transform="translate(943.785 591.761)" fill="#2180b1"/>
      <path id="Path_37" data-name="Path 37" d="M169.294,336.49c14.012,1.958,38.058,6.119,52.13,8.015a1052.887,1052.887,0,0,1-96.184-182.4c6.119,60.146,16.031,120.23,44.054,174.38" transform="translate(640.406 829.776)" fill="#2180b1"/>
    </g>
    <g id="Group_27" data-name="Group 27" transform="translate(-76 5738.627)">
      <path id="Path_38" data-name="Path 38" d="M300.361,198.454v79.6H439.742v55.924H300.361V443.687H230.67V142.53H458.221v55.924Z" transform="translate(-230.67 -137.268)" fill="#2180b1"/>
      <path id="Path_39" data-name="Path 39" d="M272.376,297.408c0-89.454,69.691-155.718,164.774-155.718s164.468,65.836,164.468,155.718S531.5,453.188,436.844,453.188,272.07,386.923,272.07,297.408m258.939,0c0-57.209-40.444-96.368-94.165-96.368s-94.226,39.159-94.226,96.368,40.444,96.368,94.226,96.368,94.165-39.159,94.165-96.368" transform="translate(-19.433 -141.567)" fill="#2180b1"/>
      <path id="Path_40" data-name="Path 40" d="M661.6,443.687l-.428-180.682-88.6,148.8H541.187L452.957,266.86V443.687H387.61V142.53h57.637L557.952,329.7,668.943,142.53h57.209l.857,301.157Z" transform="translate(572.643 -137.268)" fill="#2180b1"/>
      <path id="Path_41" data-name="Path 41" d="M470.93,418.312l23.679-52.5a177.441,177.441,0,0,0,99.121,31.45c41.3,0,58.065-13.767,58.065-32.306,0-56.352-175.114-17.622-175.114-129.47,0-51.213,41.3-93.8,126.961-93.8,37.813,0,76.544,9.056,104.505,26.677l-21.476,52.926a169.728,169.728,0,0,0-83.458-23.679c-41.3,0-57.209,15.48-57.209,34.448,0,55.5,175.053,17.193,175.053,127.756,0,50.295-41.729,93.309-127.756,93.309-47.786,0-95.94-14.134-122.372-34.815" transform="translate(998.451 -141.567)" fill="#2180b1"/>
      <path id="Path_42" data-name="Path 42" d="M516.52,297.408c0-89.454,69.691-155.718,164.774-155.718s164.773,65.836,164.773,155.718-70.058,155.78-164.773,155.78S516.52,386.923,516.52,297.408m259,0c0-57.209-40.444-96.368-94.226-96.368s-94.227,39.159-94.227,96.368,40.444,96.368,94.227,96.368,94.226-39.159,94.226-96.368" transform="translate(1231.808 -141.567)" fill="#2180b1"/>
      <path id="Path_43" data-name="Path 43" d="M578.86,142.53h69.691V386.907H799.558v56.781H578.86Z" transform="translate(1551.574 -137.268)" fill="#2180b1"/>
      <path id="Path_44" data-name="Path 44" d="M620.483,311.22V142.53h69.691V308.589c0,57.27,24.964,80.888,67.3,80.888s67.3-23.618,67.3-80.888V142.53h68.283V311.22c0,88.6-50.723,137.669-136.323,137.669S620.36,399.939,620.36,311.22" transform="translate(1763.323 -137.268)" fill="#2180b1"/>
      <path id="Path_45" data-name="Path 45" d="M766.068,199.311H669.7V142.53H932.127v56.781H835.759V443.687H766.068Z" transform="translate(2016.548 -137.268)" fill="#2180b1"/>
      <rect id="Rectangle_33" data-name="Rectangle 33" width="69.691" height="301.157" transform="translate(2986.12 5.262)" fill="#2180b1"/>
      <path id="Path_46" data-name="Path 46" d="M738.78,297.408c0-89.454,69.752-155.718,164.774-155.718s164.774,65.836,164.774,155.718-70.119,155.78-164.774,155.78S738.78,386.923,738.78,297.408m259,0c0-57.209-40.444-96.368-94.226-96.368s-94.226,39.159-94.226,96.368,40.5,96.368,94.226,96.368,94.226-39.159,94.226-96.368" transform="translate(2369.468 -141.567)" fill="#2180b1"/>
      <path id="Path_47" data-name="Path 47" d="M1077.313,142.53V443.687h-57.27L869.954,260.864V443.687H801.12V142.53h57.637l149.722,182.824V142.53Z" transform="translate(2689.234 -137.268)" fill="#2180b1"/>
      <path id="Path_48" data-name="Path 48" d="M854.17,418.414l23.618-52.62a177.438,177.438,0,0,0,99.427,31.45c41.3,0,58.065-13.767,58.065-32.306,0-56.352-175.114-17.622-175.114-129.47,0-51.213,41.3-93.8,126.9-93.8,37.874,0,76.605,9.055,104.567,26.677L1070.1,221.273a169.727,169.727,0,0,0-83.458-23.679c-41.3,0-57.209,15.48-57.209,34.448,0,55.5,175.114,17.193,175.114,127.756,0,50.295-41.729,93.309-127.756,93.309-47.786,0-95.939-14.134-122.372-34.815" transform="translate(2960.102 -141.67)" fill="#2180b1"/>
      <path id="Path_49" data-name="Path 49" d="M530.3,142.53H461.461L327.28,443.687h71.4l26.677-64.551h.122l70-168.2L543.205,326.21h0l21.9,52.926h.061l26.677,64.551h73.117Z" transform="translate(263.838 -137.268)" fill="#2180b1"/>
    </g>
  </g>
</svg>
