<svg xmlns="http://www.w3.org/2000/svg" viewBox="0 0 664.31 50.93"><defs><style>.cls-1{fill:#2180b1;}</style></defs><title>Asset 1</title><g id="Layer_2" data-name="Layer 2"><g id="Layer_1-2" data-name="Layer 1"><polygon class="cls-1" points="11.39 10 11.39 23.01 34.17 23.01 34.17 32.15 11.39 32.15 11.39 50.08 0 50.08 0 0.86 37.19 0.86 37.19 10 11.39 10"/><path class="cls-1" d="M41.34,25.47C41.34,10.85,52.73,0,68.27,0S95.15,10.78,95.15,25.47,83.69,50.93,68.23,50.93,41.3,40.1,41.3,25.47m42.32,0c0-9.35-6.61-15.75-15.39-15.75s-15.4,6.4-15.4,15.75,6.61,15.75,15.4,15.75,15.39-6.4,15.39-15.75"/><polygon class="cls-1" points="201.72 50.08 201.65 20.55 187.17 44.87 182.04 44.87 167.62 21.18 167.62 50.08 156.94 50.08 156.94 0.86 166.36 0.86 184.78 31.45 202.92 0.86 212.27 0.86 212.41 50.08 201.72 50.08"/><path class="cls-1" d="M240.15,45.23,244,36.65a29,29,0,0,0,16.24,5.14c6.75,0,9.49-2.25,9.49-5.28,0-9.21-28.62-2.88-28.62-21.16C241.13,7,247.88,0,261.88,0,268.06,0,274.39,1.5,279,4.38L275.45,13a27.74,27.74,0,0,0-13.64-3.87c-6.75,0-9.35,2.53-9.35,5.63,0,9.07,28.61,2.81,28.61,20.88,0,8.22-6.82,15.25-20.88,15.25-7.81,0-15.68-2.31-20-5.69"/><path class="cls-1" d="M285.74,25.47C285.74,10.85,297.13,0,312.67,0S339.6,10.78,339.6,25.47s-11.45,25.46-26.93,25.46S285.74,40.1,285.74,25.47m42.33,0c0-9.35-6.61-15.75-15.4-15.75s-15.4,6.4-15.4,15.75,6.61,15.75,15.4,15.75,15.4-6.4,15.4-15.75"/><polygon class="cls-1" points="348.19 0.86 359.58 0.86 359.58 40.8 384.26 40.8 384.26 50.08 348.19 50.08 348.19 0.86"/><path class="cls-1" d="M389.6,28.43V.86H401V28c0,9.36,4.08,13.22,11,13.22S423,37.36,423,28V.86h11.16V28.43c0,14.48-8.29,22.5-22.28,22.5s-22.29-8-22.29-22.5"/><polygon class="cls-1" points="454.78 10.14 439.03 10.14 439.03 0.86 481.92 0.86 481.92 10.14 466.17 10.14 466.17 50.08 454.78 50.08 454.78 10.14"/><rect class="cls-1" x="488.04" y="0.86" width="11.39" height="49.22"/><path class="cls-1" d="M508,25.47C508,10.85,519.4,0,534.93,0s26.93,10.76,26.93,25.45S550.4,50.93,534.93,50.93,508,40.1,508,25.47m42.33,0c0-9.35-6.61-15.75-15.4-15.75s-15.4,6.4-15.4,15.75,6.62,15.75,15.4,15.75,15.4-6.4,15.4-15.75"/><polygon class="cls-1" points="615.59 0.86 615.59 50.08 606.23 50.08 581.7 20.2 581.7 50.08 570.45 50.08 570.45 0.86 579.87 0.86 604.34 30.74 604.34 0.86 615.59 0.86"/><path class="cls-1" d="M623.39,45.23l3.86-8.6a29,29,0,0,0,16.25,5.14c6.75,0,9.49-2.25,9.49-5.28,0-9.21-28.62-2.88-28.62-21.16C624.37,7,631.12,0,645.11,0c6.19,0,12.52,1.48,17.09,4.36L658.68,13A27.74,27.74,0,0,0,645,9.14c-6.75,0-9.35,2.53-9.35,5.63,0,9.07,28.62,2.81,28.62,20.88,0,8.22-6.82,15.25-20.88,15.25-7.81,0-15.68-2.31-20-5.69"/><polygon class="cls-1" points="129.79 0.86 118.54 0.86 96.61 50.08 108.28 50.08 112.64 39.53 112.66 39.53 124.1 12.04 131.9 30.88 131.9 30.88 135.48 39.53 135.49 39.53 139.85 50.08 151.8 50.08 129.79 0.86"/></g></g></svg>