<?xml version="1.0" standalone="no"?><svg xmlns="http://www.w3.org/2000/svg" viewBox="0 0 1440 320"><path fill="#0099ff" fill-opacity="1" d="M0,192L26.7,170.7C53.3,149,107,107,160,96C213.3,85,267,107,320,128C373.3,149,427,171,480,176C533.3,181,587,171,640,176C693.3,181,747,203,800,202.7C853.3,203,907,181,960,181.3C1013.3,181,1067,203,1120,192C1173.3,181,1227,139,1280,112C1333.3,85,1387,75,1413,69.3L1440,64L1440,320L1413.3,320C1386.7,320,1333,320,1280,320C1226.7,320,1173,320,1120,320C1066.7,320,1013,320,960,320C906.7,320,853,320,800,320C746.7,320,693,320,640,320C586.7,320,533,320,480,320C426.7,320,373,320,320,320C266.7,320,213,320,160,320C106.7,320,53,320,27,320L0,320Z"></path></svg>